<svg width="40" height="40" viewBox="0 0 40 40" fill="none" xmlns="http://www.w3.org/2000/svg">
<g clip-path="url(#clip0_57_3812)">
<path d="M40 26.6666V34.9999C40 36.326 39.4732 37.5978 38.5355 38.5354C37.5979 39.4731 36.3261 39.9999 35 39.9999H26.6667C24.3285 39.9975 22.0321 39.3803 20.0078 38.2102C17.9834 37.04 16.3024 35.3582 15.1333 33.3332C16.3898 33.3243 17.642 33.1857 18.87 32.9199C19.8052 34.0893 20.9917 35.0333 22.3413 35.6819C23.691 36.3304 25.1693 36.667 26.6667 36.6666H35C35.442 36.6666 35.866 36.491 36.1785 36.1784C36.4911 35.8659 36.6667 35.4419 36.6667 34.9999V26.6666C36.6663 25.1686 36.3287 23.69 35.6789 22.3403C35.0292 20.9906 34.084 19.8045 32.9133 18.8699C33.1814 17.6421 33.3222 16.3899 33.3333 15.1332C35.3582 16.3023 37.0401 17.9833 38.2103 20.0077C39.3804 22.032 39.9976 24.3284 40 26.6666ZM29.9617 16.0849C30.1175 13.9376 29.8094 11.782 29.0581 9.7644C28.3068 7.74682 27.13 5.91461 25.6076 4.39227C24.0853 2.86993 22.2531 1.69313 20.2355 0.941835C18.2179 0.190542 16.0623 -0.117636 13.915 0.0382397C10.1099 0.472793 6.59488 2.28353 4.03196 5.12948C1.46904 7.97542 0.0350453 11.6602 0 15.4899L0 23.8899C0 28.1099 2.51167 29.9999 5 29.9999H14.5C18.3313 29.9669 22.0183 28.5339 24.8663 25.9708C27.7143 23.4077 29.5266 19.8916 29.9617 16.0849ZM23.25 6.75157C24.4332 7.93741 25.3479 9.36357 25.9322 10.9336C26.5165 12.5035 26.7567 14.1807 26.6367 15.8516C26.2809 18.8244 24.8508 21.5646 22.6155 23.5565C20.3803 25.5483 17.494 26.6544 14.5 26.6666H5C3.45333 26.6666 3.33333 24.5416 3.33333 23.8899V15.4899C3.34723 12.4972 4.45441 9.61275 6.44653 7.37937C8.43864 5.14599 11.1783 3.71769 14.15 3.36324C14.4267 3.34324 14.7033 3.33324 14.98 3.33324C16.5154 3.33181 18.0361 3.63297 19.4551 4.2195C20.8741 4.80604 22.1637 5.66645 23.25 6.75157Z" fill="#79747E"/>
</g>
<defs>
<clipPath id="clip0_57_3812">
<rect width="40" height="40" fill="white"/>
</clipPath>
</defs>
</svg>
