<svg width="40" height="40" viewBox="0 0 40 40" fill="none" xmlns="http://www.w3.org/2000/svg">
<g clip-path="url(#clip0_57_3807)">
<path d="M39.727 14.6567C39.3861 13.5715 38.705 12.6249 37.7844 11.9567C36.8638 11.2886 35.7527 10.9345 34.6153 10.9467H27.3337L25.122 4.05334C24.7742 2.96827 24.0908 2.0217 23.1703 1.35011C22.2498 0.678533 21.1398 0.31665 20.0003 0.31665C18.8609 0.31665 17.7509 0.678533 16.8304 1.35011C15.9099 2.0217 15.2265 2.96827 14.8787 4.05334L12.667 10.9467H5.38532C4.25156 10.9483 3.14731 11.3081 2.23029 11.9748C1.31327 12.6415 0.630389 13.581 0.27919 14.659C-0.0720084 15.737 -0.0735628 16.8984 0.274749 17.9773C0.623061 19.0563 1.30342 19.9975 2.21865 20.6667L8.14532 25L5.89199 31.9783C5.52784 33.0607 5.52323 34.2317 5.87884 35.3168C6.23445 36.402 6.93123 37.3431 7.86532 38C8.78341 38.678 9.89598 39.0412 11.0372 39.0355C12.1785 39.0298 13.2874 38.6555 14.1987 37.9683L20.0003 33.6983L25.8037 37.9633C26.7201 38.6374 27.8266 39.0036 28.9643 39.0091C30.1019 39.0146 31.212 38.6593 32.1349 37.9942C33.0579 37.3291 33.7462 36.3884 34.1008 35.3075C34.4554 34.2265 34.4582 33.061 34.1087 31.9783L31.8553 25L37.7887 20.6667C38.7143 20.0059 39.4027 19.0647 39.7518 17.9822C40.1009 16.8998 40.0922 15.7338 39.727 14.6567ZM35.822 17.975L28.9153 23.0233C28.6316 23.2303 28.4206 23.5215 28.3122 23.8556C28.2039 24.1896 28.2038 24.5493 28.312 24.8833L30.937 33C31.0698 33.4117 31.0687 33.8549 30.9337 34.2659C30.7988 34.6769 30.537 35.0345 30.186 35.2873C29.835 35.5401 29.4129 35.6751 28.9803 35.6729C28.5478 35.6707 28.127 35.5314 27.7787 35.275L20.987 30.275C20.7009 30.0649 20.3553 29.9516 20.0003 29.9516C19.6454 29.9516 19.2997 30.0649 19.0137 30.275L12.222 35.275C11.8738 35.5349 11.4519 35.6771 11.0174 35.681C10.583 35.685 10.1586 35.5504 9.8057 35.2969C9.45285 35.0434 9.1899 34.6841 9.05498 34.2712C8.92006 33.8582 8.92018 33.4129 9.05532 33L11.6887 24.8833C11.7968 24.5493 11.7968 24.1896 11.6884 23.8556C11.5801 23.5215 11.369 23.2303 11.0853 23.0233L4.17865 17.975C3.83083 17.7203 3.57238 17.3623 3.44022 16.9519C3.30807 16.5416 3.30897 16.1 3.4428 15.6902C3.57662 15.2804 3.83653 14.9233 4.18539 14.6701C4.53425 14.4168 4.95423 14.2803 5.38532 14.28H13.8853C14.2382 14.28 14.5819 14.168 14.8671 13.9601C15.1522 13.7523 15.364 13.4593 15.472 13.1233L18.0553 5.07167C18.1879 4.65965 18.4478 4.30032 18.7977 4.04542C19.1475 3.79052 19.5692 3.65318 20.002 3.65318C20.4348 3.65318 20.8565 3.79052 21.2063 4.04542C21.5561 4.30032 21.816 4.65965 21.9487 5.07167L24.532 13.1233C24.64 13.4593 24.8518 13.7523 25.1369 13.9601C25.422 14.168 25.7658 14.28 26.1187 14.28H34.6187C35.0497 14.2803 35.4697 14.4168 35.8186 14.6701C36.1674 14.9233 36.4274 15.2804 36.5612 15.6902C36.695 16.1 36.6959 16.5416 36.5638 16.9519C36.4316 17.3623 36.1731 17.7203 35.8253 17.975H35.822Z" fill="#49454F"/>
</g>
<defs>
<clipPath id="clip0_57_3807">
<rect width="40" height="40" fill="white"/>
</clipPath>
</defs>
</svg>
