<svg width="32" height="32" viewBox="0 0 32 32" fill="none" xmlns="http://www.w3.org/2000/svg">
<path d="M14.6667 14.6667H0V4C0 2.93913 0.421427 1.92172 1.17157 1.17157C1.92172 0.421427 2.93913 0 4 0L14.6667 0V14.6667ZM2.66667 12H12V2.66667H4C3.64638 2.66667 3.30724 2.80714 3.05719 3.05719C2.80714 3.30724 2.66667 3.64638 2.66667 4V12Z" fill="#79747E"/>
<path d="M31.9997 14.6667H17.333V0H27.9997C29.0605 0 30.078 0.421427 30.8281 1.17157C31.5782 1.92172 31.9997 2.93913 31.9997 4V14.6667ZM19.9997 12H29.333V4C29.333 3.64638 29.1925 3.30724 28.9425 3.05719C28.6924 2.80714 28.3533 2.66667 27.9997 2.66667H19.9997V12Z" fill="#79747E"/>
<path d="M14.6667 32H4C2.93913 32 1.92172 31.5786 1.17157 30.8284C0.421427 30.0783 0 29.0609 0 28L0 17.3333H14.6667V32ZM2.66667 20V28C2.66667 28.3536 2.80714 28.6928 3.05719 28.9428C3.30724 29.1929 3.64638 29.3333 4 29.3333H12V20H2.66667Z" fill="#79747E"/>
<path d="M27.9997 32H17.333V17.3333H31.9997V28C31.9997 29.0609 31.5782 30.0783 30.8281 30.8284C30.078 31.5786 29.0605 32 27.9997 32ZM19.9997 29.3333H27.9997C28.3533 29.3333 28.6924 29.1929 28.9425 28.9428C29.1925 28.6928 29.333 28.3536 29.333 28V20H19.9997V29.3333Z" fill="#79747E"/>
</svg>
